<?xml version="1.0" standalone="no"?>
<!DOCTYPE svg PUBLIC "-//W3C//DTD SVG 20010904//EN"
 "http://www.w3.org/TR/2001/REC-SVG-20010904/DTD/svg10.dtd">
<svg version="1.0" xmlns="http://www.w3.org/2000/svg"
 width="337.000000pt" height="608.000000pt" viewBox="0 0 337.000000 608.000000"
 preserveAspectRatio="xMidYMid meet">
<metadata>
Created by potrace 1.15, written by Peter Selinger 2001-2017
</metadata>
<g transform="translate(0.000000,608.000000) scale(0.100000,-0.100000)"
fill="#000000" stroke="none">
<path d="M12 6068 c-15 -15 -18 -5362 -2 -5402 6 -16 6 -27 0 -31 -6 -4 -10
-130 -10 -321 l0 -314 737 0 737 0 -44 46 c-25 26 -52 55 -60 64 -8 9 -74 77
-146 151 -282 290 -331 347 -429 509 -121 198 -358 687 -425 875 -33 96 -73
254 -120 480 -56 273 -103 472 -125 535 -16 45 -65 235 -65 252 0 5 5 6 10 3
6 -3 10 -1 10 4 0 6 -6 11 -12 11 -10 0 -9 3 1 9 7 5 9 10 4 12 -6 2 -8 22 -5
44 3 26 7 34 11 23 5 -15 8 -14 17 7 7 15 8 28 2 37 -8 10 -8 9 -4 -4 3 -10 1
-18 -4 -18 -6 0 -10 15 -9 33 0 17 3 26 6 20 2 -7 9 -13 14 -13 6 0 5 9 -1 21
-24 44 -1 27 38 -29 22 -32 59 -105 81 -163 23 -57 57 -136 77 -175 l36 -71
-36 -54 c-33 -49 -45 -79 -30 -79 3 0 26 14 51 31 24 17 62 33 83 36 l38 5 6
-43 c38 -312 66 -473 96 -553 22 -58 48 -79 35 -28 -18 73 -54 319 -59 412 -4
58 -9 123 -12 146 l-5 41 129 -5 c168 -6 462 26 462 51 0 6 7 18 16 28 15 17
15 23 -2 76 -10 32 -20 60 -24 63 -3 3 -18 27 -34 53 -39 69 -80 112 -155 165
-36 25 -68 49 -71 52 -3 3 -12 6 -20 8 -8 2 -16 7 -18 12 -2 5 -10 6 -18 3 -8
-3 -14 -2 -14 1 0 4 11 11 25 16 20 8 36 3 85 -22 90 -48 188 -138 149 -138
-5 0 -7 4 -4 10 3 6 -1 7 -10 4 -9 -4 -15 -7 -13 -8 2 -1 15 -10 30 -19 26
-16 27 -16 21 0 -12 33 5 8 41 -61 22 -41 34 -77 30 -88 -4 -13 -1 -16 10 -12
24 9 20 34 -20 112 -22 45 -58 94 -97 133 -46 47 -55 60 -37 54 59 -18 81 -37
110 -96 44 -86 120 -275 120 -296 0 -10 -30 -110 -66 -223 -136 -425 -220
-717 -253 -880 -27 -131 -53 -331 -49 -371 2 -19 9 18 17 81 36 315 106 583
338 1293 l26 79 20 -49 c24 -57 25 -58 33 -50 16 15 -147 393 -224 521 -18 30
-34 37 -240 112 -136 49 -174 67 -160 75 7 5 9 11 5 15 -3 4 -13 2 -21 -5 -11
-9 -25 -9 -61 0 l-48 12 7 116 c10 157 64 501 80 501 1 0 2 -31 2 -69 -1 -38
-5 -67 -9 -64 -5 3 -4 -4 2 -14 6 -11 8 -23 4 -26 -3 -4 2 -18 11 -32 10 -15
15 -34 13 -43 -4 -13 -5 -12 -6 4 0 12 -7 24 -13 27 -10 3 -12 -16 -8 -83 3
-49 2 -86 -2 -83 -5 2 -8 -52 -8 -121 0 -69 3 -126 8 -126 4 0 6 46 4 102 -2
57 0 99 4 95 4 -4 6 -35 5 -69 -1 -65 17 -123 20 -63 2 27 3 25 9 -10 l7 -40
2 42 c1 42 14 63 26 43 3 -5 1 -10 -4 -10 -6 0 -11 -8 -11 -17 0 -14 4 -12 17
7 11 16 16 40 15 69 -1 27 3 48 11 53 9 6 9 12 0 28 -20 31 -16 88 7 112 11
12 21 31 21 42 3 38 5 51 12 76 3 14 9 48 12 75 6 59 19 141 34 210 6 28 16
79 21 114 6 35 12 67 15 71 2 4 8 31 13 61 6 30 24 115 41 189 18 74 38 162
46 195 45 193 64 273 74 298 12 31 14 31 151 2 36 -8 110 -21 165 -30 55 -10
126 -23 158 -31 56 -12 62 -12 145 16 48 16 112 38 142 50 167 65 391 142 397
137 19 -20 26 -147 29 -562 2 -253 6 -473 10 -490 6 -25 4 -28 -8 -18 -13 11
-13 5 -5 -47 5 -33 14 -60 18 -60 5 0 9 -12 9 -26 0 -33 -17 -22 -25 17 -4 17
-9 28 -12 25 -3 -2 3 -28 12 -56 11 -33 14 -61 9 -78 -4 -15 -6 -33 -5 -40 1
-7 -7 -63 -19 -124 -11 -62 -20 -125 -20 -142 0 -16 -8 -35 -18 -43 -9 -8 -11
-11 -4 -8 20 10 4 -86 -16 -103 -17 -13 -103 -41 -223 -71 -38 -9 -71 -20 -74
-23 -4 -3 9 -16 26 -29 43 -30 136 -37 208 -16 l51 15 0 -25 c0 -16 -4 -22
-12 -17 -7 4 -8 3 -4 -5 4 -6 0 -55 -9 -109 -36 -221 -43 -258 -50 -274 -4
-11 -3 -18 3 -18 6 0 23 27 38 60 15 34 31 57 37 53 6 -4 7 -1 2 6 -8 14 64
173 76 165 4 -2 11 1 15 7 5 8 3 9 -6 4 -9 -6 -10 -2 -5 16 12 40 49 89 63 84
7 -3 11 -1 7 4 -3 5 12 23 32 40 41 34 63 41 42 14 -13 -16 -12 -17 3 -4 10 7
15 18 11 24 -4 6 0 8 10 4 10 -4 16 -2 14 6 -1 7 5 12 13 12 8 0 21 6 29 13 8
8 22 11 33 9 10 -3 16 -1 13 3 -10 17 150 57 299 75 104 13 245 19 362 16 51
-1 52 -1 56 -36 5 -41 -1 -44 -61 -34 -73 12 -189 10 -284 -6 -111 -18 -285
-60 -333 -80 -20 -8 -41 -12 -47 -8 -6 4 -7 1 -2 -7 6 -10 1 -12 -21 -7 -16 3
-23 4 -16 1 9 -4 1 -15 -22 -32 -39 -31 -126 -133 -173 -203 -26 -39 -83 -160
-83 -176 0 -11 22 0 27 15 4 9 15 31 25 47 l18 30 -4 -41 c-5 -35 -1 -45 27
-76 28 -31 42 -37 107 -48 117 -20 471 7 598 45 52 16 68 11 120 -38 37 -35
41 -24 12 33 -27 53 -25 71 11 106 17 16 50 52 72 79 l40 50 -6 -665 -5 -665
-56 -390 c-30 -214 -60 -428 -67 -475 -6 -47 -14 -112 -19 -145 -14 -105 0
-90 61 65 56 142 180 475 240 642 l49 136 0 2296 0 2296 -1673 0 c-1288 0
-1676 -3 -1685 -12z m2847 -1317 c-6 -17 -8 -39 -3 -49 4 -9 6 -25 5 -34 -1
-10 1 -18 6 -18 4 0 8 -17 7 -38 0 -20 3 -48 8 -61 5 -13 11 -47 14 -75 3 -28
8 -55 11 -60 3 -5 7 -31 9 -58 4 -57 13 -76 25 -57 6 10 9 11 9 2 0 -9 17 -13
49 -13 44 0 49 -2 44 -20 -4 -16 -14 -20 -44 -20 -22 0 -39 5 -39 11 0 5 -4 7
-10 4 -17 -10 -11 -25 10 -25 17 0 20 -7 20 -40 0 -33 3 -40 20 -40 17 0 20 7
20 40 0 22 5 40 10 40 6 0 10 -6 10 -14 0 -7 7 -27 15 -42 8 -16 15 -36 14
-44 0 -8 -6 -1 -14 15 -16 37 -19 29 -4 -13 6 -18 15 -29 20 -26 12 7 11 -7
-1 -26 -7 -12 -11 -10 -19 10 -5 14 -10 20 -10 14 -1 -7 6 -25 14 -40 12 -24
15 -25 15 -9 0 16 2 17 10 5 11 -18 6 56 -9 121 -5 24 -7 47 -4 53 3 5 1 6 -5
2 -7 -4 -9 5 -5 29 3 19 2 35 -3 35 -5 0 -10 12 -11 27 -1 25 0 26 10 8 14
-24 12 -17 31 -145 22 -155 23 -169 14 -164 -5 3 -5 -7 -1 -23 4 -15 8 -44 8
-63 0 -19 3 -37 7 -40 3 -3 11 -75 17 -160 6 -85 14 -165 16 -176 4 -19 -1
-23 -43 -29 -26 -4 -83 -15 -127 -25 -257 -59 -647 -141 -651 -138 -2 3 36 96
86 208 92 206 148 352 316 832 93 268 134 372 140 365 2 -2 -1 -18 -7 -36z
m-2490 -828 c0 -27 4 -171 11 -322 6 -150 9 -276 6 -278 -5 -6 -94 26 -179 64
-48 22 -57 30 -57 51 0 28 10 25 14 -4 2 -10 8 -20 15 -22 6 -2 11 0 9 5 -3
12 21 112 32 134 8 13 7 25 -1 41 -9 17 -9 20 4 15 11 -4 18 6 26 41 15 59 59
208 73 245 6 15 17 27 24 27 8 0 14 10 14 25 0 14 2 25 5 25 3 0 5 -21 4 -47z
m2781 -445 c0 -7 3 -30 6 -50 l7 -38 -120 0 c-315 0 -597 -60 -753 -161 -33
-21 -60 -37 -60 -34 0 2 7 20 17 39 15 32 24 37 112 65 148 47 631 163 657
158 13 -2 21 -1 19 3 -6 10 73 22 87 14 7 -4 8 -2 4 4 -4 7 -1 12 8 12 9 0 16
-6 16 -12z m-2807 -180 c33 -19 43 -30 45 -54 3 -31 3 -31 -55 -38 -80 -9
-103 -16 -103 -30 0 -8 10 -11 29 -8 19 3 30 -1 34 -12 4 -9 2 -16 -3 -16 -6
0 -10 5 -10 10 0 6 -8 10 -17 10 -16 0 -16 -2 -3 -11 24 -17 -58 0 -111 22
-40 18 -45 23 -41 45 5 25 22 44 22 24 0 -6 4 -9 9 -6 5 3 7 16 3 28 -3 14 -1
19 6 14 15 -9 3 26 -12 36 -7 5 -5 8 5 8 9 0 19 9 22 20 3 11 1 20 -3 20 -5 0
-11 -8 -13 -17 -3 -11 -5 -8 -6 9 l-1 28 80 -30 c44 -16 100 -39 123 -52z"/>
<path d="M1877 2633 c15 -40 43 -70 202 -214 308 -281 513 -521 689 -809 37
-60 24 -25 -15 42 -85 145 -204 311 -320 446 -77 89 -98 110 -213 211 -47 41
-87 77 -90 81 -3 4 -39 35 -80 70 -99 84 -149 136 -156 166 -3 13 -10 24 -15
24 -5 0 -5 -8 -2 -17z"/>
<path d="M1755 889 c-33 -5 -117 -6 -186 -3 -140 7 -169 0 -169 -41 0 -18 11
-32 41 -52 32 -21 58 -28 137 -36 116 -11 327 -9 436 3 44 6 136 12 205 15
250 12 254 25 21 74 -231 50 -350 59 -485 40z m335 -23 c41 -7 93 -21 115 -31
l40 -17 -35 -15 c-33 -15 -287 -45 -302 -36 -4 2 -55 -1 -113 -7 -77 -8 -111
-8 -126 1 -12 6 -60 13 -107 15 -47 2 -86 5 -87 6 -1 2 -5 24 -8 51 l-7 47
128 -6 c70 -3 154 -1 187 5 71 12 210 6 315 -13z"/>
<path d="M1575 544 c39 -19 78 -32 88 -30 9 2 15 1 12 -3 -2 -5 27 -14 66 -21
73 -14 242 -5 319 18 44 12 134 55 100 47 -14 -4 -99 -9 -190 -12 -137 -4
-190 -2 -308 16 -79 11 -147 21 -150 20 -4 0 25 -16 63 -35z"/>
<path d="M3330 540 c-57 -72 -273 -239 -579 -448 -74 -51 -126 -92 -116 -92
10 0 26 7 36 16 13 12 19 12 25 3 4 -7 3 -10 -4 -5 -6 3 -13 2 -17 -4 -4 -7
98 -10 310 -10 l316 0 34 35 35 35 0 255 c-1 140 -3 255 -5 255 -2 0 -17 -18
-35 -40z"/>
</g>
</svg>
